<svg xmlns="http://www.w3.org/2000/svg" viewBox="0 0 1920 1080" preserveAspectRatio="xMidYMid slice">
  <defs>
    <linearGradient id="sky" x1="0" y1="0" x2="0" y2="1">
      <stop offset="0%" stop-color="#1E3A8A"/>
      <stop offset="55%" stop-color="#1D4ED8"/>
      <stop offset="100%" stop-color="#3B82F6"/>
    </linearGradient>
    <linearGradient id="land" x1="0" y1="0" x2="0" y2="1">
      <stop offset="0%" stop-color="#0F172A"/>
      <stop offset="100%" stop-color="#1E3A8A"/>
    </linearGradient>
  </defs>
  <rect width="1920" height="1080" fill="url(#sky)"/>
  <circle cx="1620" cy="280" r="120" fill="#FCD116" opacity="0.85"/>
  <circle cx="1620" cy="280" r="180" fill="#FCD116" opacity="0.18"/>
  <path d="M0 720 Q 380 580 760 700 T 1520 660 T 1920 700 L 1920 1080 L 0 1080 Z" fill="url(#land)" opacity="0.95"/>
  <path d="M0 760 Q 480 640 960 760 T 1920 760 L 1920 1080 L 0 1080 Z" fill="#0F172A" opacity="0.6"/>
  <g fill="#0F172A" opacity="0.7">
    <path d="M260 720 L320 540 L380 720 Z"/>
    <path d="M520 720 L600 480 L680 720 Z"/>
    <path d="M820 720 L900 530 L980 720 Z"/>
    <path d="M1180 720 L1260 460 L1340 720 Z"/>
    <path d="M1480 720 L1540 510 L1600 720 Z"/>
  </g>
  <g stroke="#FFFFFF" stroke-width="4" stroke-dasharray="40 28" opacity="0.65">
    <path d="M960 880 Q 700 950 0 1080" fill="none"/>
    <path d="M960 880 Q 1220 950 1920 1080" fill="none"/>
  </g>
  <path d="M0 1080 L960 880 L1920 1080 Z" fill="#0F172A" opacity="0.4"/>
</svg>
