<svg xmlns="http://www.w3.org/2000/svg" style="display:none">
  <defs>
    <symbol id="i-pin" viewBox="0 0 24 24" fill="none" stroke="currentColor" stroke-width="1.5" stroke-linecap="round" stroke-linejoin="round">
      <path d="M12 21s-7-7.5-7-12a7 7 0 1 1 14 0c0 4.5-7 12-7 12z"/>
      <circle cx="12" cy="9" r="2.5"/>
    </symbol>
    <symbol id="i-calendar" viewBox="0 0 24 24" fill="none" stroke="currentColor" stroke-width="1.5" stroke-linecap="round" stroke-linejoin="round">
      <rect x="3.5" y="5" width="17" height="15" rx="2"/>
      <path d="M3.5 9.5h17M8 3v4M16 3v4"/>
    </symbol>
    <symbol id="i-clock" viewBox="0 0 24 24" fill="none" stroke="currentColor" stroke-width="1.5" stroke-linecap="round" stroke-linejoin="round">
      <circle cx="12" cy="12" r="9"/>
      <path d="M12 7v5l3 2"/>
    </symbol>
    <symbol id="i-car" viewBox="0 0 24 24" fill="none" stroke="currentColor" stroke-width="1.5" stroke-linecap="round" stroke-linejoin="round">
      <path d="M4 16v-2.5l1.5-4A2 2 0 0 1 7.4 8h9.2a2 2 0 0 1 1.9 1.5l1.5 4V16"/>
      <rect x="3" y="16" width="18" height="3.5" rx="1"/>
      <circle cx="7.5" cy="18" r="1.4" fill="currentColor"/>
      <circle cx="16.5" cy="18" r="1.4" fill="currentColor"/>
    </symbol>
    <symbol id="i-suv" viewBox="0 0 24 24" fill="none" stroke="currentColor" stroke-width="1.5" stroke-linecap="round" stroke-linejoin="round">
      <path d="M3 16v-3l1.5-4A2 2 0 0 1 6.4 7.5h11.2a2 2 0 0 1 1.7 1l2 3.5"/>
      <rect x="2.5" y="16" width="19" height="3.5" rx="1"/>
      <path d="M9 7.5v4M14 7.5v4"/>
      <circle cx="7.5" cy="18" r="1.4" fill="currentColor"/>
      <circle cx="16.5" cy="18" r="1.4" fill="currentColor"/>
    </symbol>
    <symbol id="i-4wd" viewBox="0 0 24 24" fill="none" stroke="currentColor" stroke-width="1.5" stroke-linecap="round" stroke-linejoin="round">
      <circle cx="12" cy="12" r="9"/>
      <path d="M8 8v8M8 12h4l2-4v8"/>
    </symbol>
    <symbol id="i-van" viewBox="0 0 24 24" fill="none" stroke="currentColor" stroke-width="1.5" stroke-linecap="round" stroke-linejoin="round">
      <path d="M3 7h11l4 4v5"/>
      <rect x="2.5" y="16" width="19" height="3.5" rx="1"/>
      <path d="M3 7v9M14 11h4M9 7v9"/>
      <circle cx="7.5" cy="18" r="1.4" fill="currentColor"/>
      <circle cx="16.5" cy="18" r="1.4" fill="currentColor"/>
    </symbol>
    <symbol id="i-crown" viewBox="0 0 24 24" fill="none" stroke="currentColor" stroke-width="1.5" stroke-linecap="round" stroke-linejoin="round">
      <path d="M3 8l3 8h12l3-8-5 3-4-6-4 6-5-3z"/>
      <path d="M5 19h14"/>
    </symbol>
    <symbol id="i-wallet" viewBox="0 0 24 24" fill="none" stroke="currentColor" stroke-width="1.5" stroke-linecap="round" stroke-linejoin="round">
      <rect x="3" y="6" width="18" height="13" rx="2"/>
      <path d="M3 10h18M16 14h2"/>
    </symbol>
    <symbol id="i-seat" viewBox="0 0 24 24" fill="none" stroke="currentColor" stroke-width="1.5" stroke-linecap="round" stroke-linejoin="round">
      <path d="M6 4h6a3 3 0 0 1 3 3v8H6z"/>
      <path d="M6 15v5M15 15h3a2 2 0 0 1 2 2v3"/>
    </symbol>
    <symbol id="i-gear" viewBox="0 0 24 24" fill="none" stroke="currentColor" stroke-width="1.5" stroke-linecap="round" stroke-linejoin="round">
      <circle cx="12" cy="12" r="3"/>
      <path d="M12 3v3M12 18v3M3 12h3M18 12h3M5.5 5.5l2 2M16.5 16.5l2 2M5.5 18.5l2-2M16.5 7.5l2-2"/>
    </symbol>
    <symbol id="i-fuel" viewBox="0 0 24 24" fill="none" stroke="currentColor" stroke-width="1.5" stroke-linecap="round" stroke-linejoin="round">
      <rect x="4" y="4" width="9" height="16" rx="1.5"/>
      <path d="M4 9h9M13 9l3 3v6a2 2 0 0 0 4 0V11l-2-3"/>
    </symbol>
    <symbol id="i-snow" viewBox="0 0 24 24" fill="none" stroke="currentColor" stroke-width="1.5" stroke-linecap="round" stroke-linejoin="round">
      <path d="M12 3v18M3 12h18M5 5l14 14M19 5L5 19"/>
    </symbol>
    <symbol id="i-bluetooth" viewBox="0 0 24 24" fill="none" stroke="currentColor" stroke-width="1.5" stroke-linecap="round" stroke-linejoin="round">
      <path d="M7 7l10 10-5 4V3l5 4L7 17"/>
    </symbol>
    <symbol id="i-shield" viewBox="0 0 24 24" fill="none" stroke="currentColor" stroke-width="1.5" stroke-linecap="round" stroke-linejoin="round">
      <path d="M12 3l8 3v6c0 5-3.5 8-8 9-4.5-1-8-4-8-9V6l8-3z"/>
      <path d="M9 12l2 2 4-4"/>
    </symbol>
    <symbol id="i-lock" viewBox="0 0 24 24" fill="none" stroke="currentColor" stroke-width="1.5" stroke-linecap="round" stroke-linejoin="round">
      <rect x="5" y="11" width="14" height="9" rx="2"/>
      <path d="M8 11V8a4 4 0 0 1 8 0v3"/>
    </symbol>
    <symbol id="i-phone" viewBox="0 0 24 24" fill="none" stroke="currentColor" stroke-width="1.5" stroke-linecap="round" stroke-linejoin="round">
      <path d="M5 4h3l2 5-2.5 1.5a11 11 0 0 0 6 6L15 14l5 2v3a2 2 0 0 1-2 2A16 16 0 0 1 3 6a2 2 0 0 1 2-2z"/>
    </symbol>
    <symbol id="i-whatsapp" viewBox="0 0 24 24" fill="none" stroke="currentColor" stroke-width="1.5" stroke-linecap="round" stroke-linejoin="round">
      <path d="M3 21l1.5-5A8.5 8.5 0 1 1 8 19.5L3 21z"/>
      <path d="M9 9.5c0-.5.4-1 1-1h.7l1 2.2-1 .8a5 5 0 0 0 2.8 2.8l.8-1 2.2 1v.7c0 .6-.5 1-1 1A6.5 6.5 0 0 1 9 9.5z" fill="currentColor" stroke="none"/>
    </symbol>
    <symbol id="i-mail" viewBox="0 0 24 24" fill="none" stroke="currentColor" stroke-width="1.5" stroke-linecap="round" stroke-linejoin="round">
      <rect x="3" y="5" width="18" height="14" rx="2"/>
      <path d="M3 7l9 6 9-6"/>
    </symbol>
    <symbol id="i-check" viewBox="0 0 24 24" fill="none" stroke="currentColor" stroke-width="1.5" stroke-linecap="round" stroke-linejoin="round">
      <path d="M5 12.5l4 4 10-10"/>
    </symbol>
    <symbol id="i-x" viewBox="0 0 24 24" fill="none" stroke="currentColor" stroke-width="1.5" stroke-linecap="round" stroke-linejoin="round">
      <path d="M6 6l12 12M18 6L6 18"/>
    </symbol>
    <symbol id="i-chevron-down" viewBox="0 0 24 24" fill="none" stroke="currentColor" stroke-width="1.5" stroke-linecap="round" stroke-linejoin="round">
      <path d="M6 9l6 6 6-6"/>
    </symbol>
    <symbol id="i-chevron-right" viewBox="0 0 24 24" fill="none" stroke="currentColor" stroke-width="1.5" stroke-linecap="round" stroke-linejoin="round">
      <path d="M9 6l6 6-6 6"/>
    </symbol>
    <symbol id="i-arrow-right" viewBox="0 0 24 24" fill="none" stroke="currentColor" stroke-width="1.5" stroke-linecap="round" stroke-linejoin="round">
      <path d="M5 12h14M13 6l6 6-6 6"/>
    </symbol>
    <symbol id="i-arrow-left" viewBox="0 0 24 24" fill="none" stroke="currentColor" stroke-width="1.5" stroke-linecap="round" stroke-linejoin="round">
      <path d="M19 12H5M11 6l-6 6 6 6"/>
    </symbol>
    <symbol id="i-star" viewBox="0 0 24 24" fill="currentColor" stroke="currentColor" stroke-width="1.5" stroke-linejoin="round">
      <path d="M12 3l2.7 5.6 6.1.9-4.4 4.3 1 6-5.4-2.9-5.4 2.9 1-6L3.2 9.5l6.1-.9z"/>
    </symbol>
    <symbol id="i-info" viewBox="0 0 24 24" fill="none" stroke="currentColor" stroke-width="1.5" stroke-linecap="round" stroke-linejoin="round">
      <circle cx="12" cy="12" r="9"/>
      <path d="M12 11v6M12 7.5v.01"/>
    </symbol>
    <symbol id="i-upload" viewBox="0 0 24 24" fill="none" stroke="currentColor" stroke-width="1.5" stroke-linecap="round" stroke-linejoin="round">
      <path d="M12 16V4M7 9l5-5 5 5M5 18v2h14v-2"/>
    </symbol>
    <symbol id="i-bank" viewBox="0 0 24 24" fill="none" stroke="currentColor" stroke-width="1.5" stroke-linecap="round" stroke-linejoin="round">
      <path d="M3 10l9-5 9 5"/>
      <path d="M5 10v8M9 10v8M15 10v8M19 10v8M3 20h18"/>
    </symbol>
    <symbol id="i-mobile-money" viewBox="0 0 24 24" fill="none" stroke="currentColor" stroke-width="1.5" stroke-linecap="round" stroke-linejoin="round">
      <rect x="6" y="3" width="12" height="18" rx="2"/>
      <path d="M9 7h6M10.5 12.5h3M12 11v3M10 17h4"/>
    </symbol>
    <symbol id="i-card" viewBox="0 0 24 24" fill="none" stroke="currentColor" stroke-width="1.5" stroke-linecap="round" stroke-linejoin="round">
      <rect x="3" y="6" width="18" height="13" rx="2"/>
      <path d="M3 10h18M7 15h4"/>
    </symbol>
    <symbol id="i-route" viewBox="0 0 24 24" fill="none" stroke="currentColor" stroke-width="1.5" stroke-linecap="round" stroke-linejoin="round">
      <circle cx="6" cy="6" r="2.5"/>
      <circle cx="18" cy="18" r="2.5"/>
      <path d="M6 8.5v6a3.5 3.5 0 0 0 3.5 3.5H15.5"/>
    </symbol>
    <symbol id="i-headset" viewBox="0 0 24 24" fill="none" stroke="currentColor" stroke-width="1.5" stroke-linecap="round" stroke-linejoin="round">
      <path d="M4 14v-2a8 8 0 0 1 16 0v2"/>
      <rect x="3" y="14" width="4" height="6" rx="1.5"/>
      <rect x="17" y="14" width="4" height="6" rx="1.5"/>
      <path d="M19 20a3 3 0 0 1-3 3h-2"/>
    </symbol>
    <symbol id="i-menu" viewBox="0 0 24 24" fill="none" stroke="currentColor" stroke-width="1.5" stroke-linecap="round" stroke-linejoin="round">
      <path d="M4 7h16M4 12h16M4 17h16"/>
    </symbol>
    <symbol id="i-search" viewBox="0 0 24 24" fill="none" stroke="currentColor" stroke-width="1.5" stroke-linecap="round" stroke-linejoin="round">
      <circle cx="11" cy="11" r="7"/>
      <path d="M16 16l5 5"/>
    </symbol>
    <symbol id="i-users" viewBox="0 0 24 24" fill="none" stroke="currentColor" stroke-width="1.5" stroke-linecap="round" stroke-linejoin="round">
      <circle cx="9" cy="8" r="3.5"/>
      <path d="M3 20a6 6 0 0 1 12 0M16 11a3 3 0 0 0 0-6M21 20a5 5 0 0 0-4-4.9"/>
    </symbol>
    <symbol id="i-luggage" viewBox="0 0 24 24" fill="none" stroke="currentColor" stroke-width="1.5" stroke-linecap="round" stroke-linejoin="round">
      <rect x="6" y="7" width="12" height="13" rx="2"/>
      <path d="M9 7V5a2 2 0 0 1 2-2h2a2 2 0 0 1 2 2v2M10 11v6M14 11v6"/>
    </symbol>
    <symbol id="i-spinner" viewBox="0 0 24 24" fill="none" stroke="currentColor" stroke-width="2.5" stroke-linecap="round">
      <path d="M12 3a9 9 0 0 1 9 9" />
    </symbol>
  </defs>
</svg>
